<?xml version="1.0" encoding="utf-8"?>
<!-- Generator: Adobe Illustrator 16.0.3, SVG Export Plug-In . SVG Version: 6.00 Build 0)  -->
<!DOCTYPE svg PUBLIC "-//W3C//DTD SVG 1.1//EN" "http://www.w3.org/Graphics/SVG/1.1/DTD/svg11.dtd">
<svg version="1.1" id="Layer_1" xmlns="http://www.w3.org/2000/svg" xmlns:xlink="http://www.w3.org/1999/xlink" x="0px" y="0px"
	 width="25.156px" height="20px" viewBox="0 0 25.156 20" enable-background="new 0 0 25.156 20" xml:space="preserve">
<g>
	<path fill="#161616" d="M6.874,9.804c0.317-0.512,0.712-1.018,1.189-1.521c0.477-0.5,1.054-0.951,1.727-1.352
		c0.673-0.403,1.322-0.738,2.218-1.004c0.895-0.267,1.921-0.426,3.079-0.48V1l8.814,6.861l-8.814,6.761v-4.91
		c-0.294,0-0.68,0.008-1.161,0.027c-0.48,0.02-1.016,0.071-1.607,0.159c-0.592,0.085-1.077,0.215-1.728,0.389
		c-0.649,0.174-1.289,0.414-1.916,0.722c-0.63,0.31-1.221,0.649-1.773,1.114c-0.554,0.461-1.028,1.03-1.427,1.698
		C5.664,12.317,6.13,11.007,6.874,9.804z"/>
	<path fill="#161616" d="M18.295,15.307v1.72H3.073V6.609h2.853c0.08-0.294,0.194-0.571,0.4-0.785
		c0.272-0.287,0.574-0.557,0.893-0.817h-5.75v13.621h18.428V14.18L18.295,15.307z"/>
</g>
</svg>
