<?xml version="1.0" encoding="utf-8"?>
<!-- Generator: Adobe Illustrator 16.0.3, SVG Export Plug-In . SVG Version: 6.00 Build 0)  -->
<!DOCTYPE svg PUBLIC "-//W3C//DTD SVG 1.1//EN" "http://www.w3.org/Graphics/SVG/1.1/DTD/svg11.dtd">
<svg version="1.1" id="Layer_1" xmlns="http://www.w3.org/2000/svg" xmlns:xlink="http://www.w3.org/1999/xlink" x="0px" y="0px"
	 width="25.156px" height="20px" viewBox="0 0 25.156 20" enable-background="new 0 0 25.156 20" xml:space="preserve">
<g>
	<path fill="#161616" d="M7.546,9.324c0.286-0.461,0.643-0.918,1.072-1.371c0.43-0.451,0.951-0.858,1.558-1.219
		c0.607-0.363,1.192-0.666,2-0.906c0.807-0.24,1.733-0.384,2.777-0.433V1.385l7.949,6.188l-7.949,6.098V9.241
		c-0.265,0-0.613,0.008-1.047,0.025c-0.434,0.017-0.917,0.064-1.45,0.143c-0.534,0.076-0.972,0.194-1.558,0.35
		c-0.585,0.157-1.162,0.374-1.728,0.651c-0.568,0.279-1.101,0.586-1.599,1.005c-0.5,0.416-0.927,0.929-1.287,1.531
		C6.454,11.591,6.874,10.409,7.546,9.324z"/>
	<path fill="#161616" d="M17.845,14.287v1.551H4.117V6.443H6.69c0.072-0.265,0.175-0.515,0.361-0.708
		c0.246-0.259,0.517-0.502,0.805-0.737H2.671v12.284H19.29v-4.012L17.845,14.287z"/>
</g>
</svg>
