<?xml version="1.0" encoding="utf-8"?>
<!-- Generator: Adobe Illustrator 16.0.3, SVG Export Plug-In . SVG Version: 6.00 Build 0)  -->
<!DOCTYPE svg PUBLIC "-//W3C//DTD SVG 1.1//EN" "http://www.w3.org/Graphics/SVG/1.1/DTD/svg11.dtd">
<svg version="1.1" id="Layer_1" xmlns="http://www.w3.org/2000/svg" xmlns:xlink="http://www.w3.org/1999/xlink" x="0px" y="0px"
	 width="180px" height="20px" viewBox="0 0 180 20" enable-background="new 0 0 180 20" xml:space="preserve">
<g>
	<polyline fill="none" stroke="#FFFFFF" stroke-width="1.6722" stroke-miterlimit="10" points="0.908,12.49 4.879,3.816 
		9.025,16.184 10.418,10.749 14.511,6.655 16.758,12.839 19.092,9.355 	"/>
</g>
<g>
	<rect x="20.792" y="2.973" fill-rule="evenodd" clip-rule="evenodd" fill="#FFFFFF" width="4.96" height="14.054"/>
	<rect x="27.818" y="7.934" fill-rule="evenodd" clip-rule="evenodd" fill="#FFFFFF" width="4.96" height="9.093"/>
	<rect x="34.845" y="13.307" fill-rule="evenodd" clip-rule="evenodd" fill="#FFFFFF" width="4.961" height="3.72"/>
</g>
<path fill-rule="evenodd" clip-rule="evenodd" fill="#FFFFFF" d="M50,18.677c4.793,0,8.678-3.884,8.678-8.677
	c0-0.971-0.16-1.903-0.453-2.775L50,10V1.323c-4.793,0-8.678,3.885-8.678,8.677C41.322,14.793,45.207,18.677,50,18.677z"/>
<circle fill-rule="evenodd" clip-rule="evenodd" fill="#FFFFFF" cx="71.646" cy="11.401" r="1.292"/>
<circle fill-rule="evenodd" clip-rule="evenodd" fill="#FFFFFF" cx="65.057" cy="7.908" r="1.291"/>
<circle fill-rule="evenodd" clip-rule="evenodd" fill="#FFFFFF" cx="70.465" cy="3.323" r="1.291"/>
<circle fill-rule="evenodd" clip-rule="evenodd" fill="#FFFFFF" cx="75.193" cy="7.104" r="1.291"/>
<circle fill-rule="evenodd" clip-rule="evenodd" fill="#FFFFFF" cx="77.376" cy="16.658" r="1.291"/>
<circle fill-rule="evenodd" clip-rule="evenodd" fill="#FFFFFF" cx="62.617" cy="15.696" r="1.292"/>
<g>
	<g>
		<rect x="82.895" y="2.895" fill="#FFFFFF" width="7.105" height="7.105"/>
		<rect x="90" y="10" fill="#FFFFFF" width="7.105" height="7.105"/>
		<rect x="90" y="2.895" fill="#161616" width="7.105" height="7.105"/>
		<rect x="82.895" y="10" fill="#161616" width="7.105" height="7.105"/>
	</g>
</g>
<polygon fill="#161616" stroke="#161616" stroke-miterlimit="10" points="101.744,18.049 105.795,9.643 111.998,11.279 
	117.256,2.895 117.256,18.049 "/>
<polygon fill="#FFFFFF" stroke="#161616" stroke-miterlimit="10" points="102.596,18.049 106.676,13.383 113.945,15.312 
	117.256,9.093 117.256,18.049 "/>
<g>
	<g>
		<line fill="none" stroke="#FFFFFF" stroke-width="1.4" stroke-miterlimit="10" x1="130" y1="12.901" x2="130" y2="17.798"/>
		<line fill="none" stroke="#FFFFFF" stroke-width="1.4" stroke-miterlimit="10" x1="130" y1="2.202" x2="130" y2="7.037"/>
		
			<rect x="125.231" y="7.037" fill="none" stroke="#FFFFFF" stroke-width="1.4" stroke-miterlimit="10" width="9.537" height="5.863"/>
		<line fill="none" stroke="#FFFFFF" stroke-width="1.4" stroke-miterlimit="10" x1="125.231" y1="9.969" x2="134.769" y2="9.969"/>
		<line fill="none" stroke="#FFFFFF" stroke-width="1.4" stroke-miterlimit="10" x1="127.119" y1="2.202" x2="132.883" y2="2.202"/>
		
			<line fill="none" stroke="#FFFFFF" stroke-width="1.4" stroke-miterlimit="10" x1="127.119" y1="17.798" x2="132.883" y2="17.798"/>
	</g>
</g>
<g>
	<path fill="none" stroke="#FFFFFF" stroke-width="2" stroke-miterlimit="10" d="M143.793,16.333c0,0-0.334-8.138,3.082-8.138
		c3.418,0,3.25,4.721,6.25,4.721s3.25-9.167,3.25-9.167"/>
	
		<line fill="none" stroke="#FFFFFF" stroke-width="0.4" stroke-miterlimit="10" x1="147.709" y1="12.917" x2="158.375" y2="12.917"/>
	<line fill="none" stroke="#FFFFFF" stroke-width="0.4" stroke-miterlimit="10" x1="141.625" y1="8.196" x2="152.291" y2="8.196"/>
</g>
<path fill="#FFFFFF" d="M173.932,2.787h-7.863c-2.168,0-3.938,1.77-3.938,3.934v2.623c0,2.165,1.77,3.935,3.938,3.935h0.65v3.935
	l4.496-3.935h2.717c2.166,0,3.938-1.771,3.938-3.935V6.721C177.869,4.557,176.098,2.787,173.932,2.787"/>
</svg>
